<svg version="1.2" xmlns="http://www.w3.org/2000/svg" viewBox="0 0 1640 664" width="1640" height="664"><style>.a{fill:#fff}</style><path class="a" d="m667 327.5l-35.5 83.5-6 20.7-8.8-2.4q-9.1-1.7-14.1-7.5-5-5.7-6.1-10.8l-20.8-66.4-27.5 66.4-5.9 20.7-8.8-2.4q-9.2-1.7-14.2-7.5-5-5.8-6.1-10.8l-21.7-69.5q-2.9-9.4-6.7-16.4-3.7-7-6.9-10.2-3.1-3.2-5-4.5-1.8-1.4-2.7-1.6l-0.2-4.5q4.4-3.2 10.9-5.6 6.4-2.5 12-2.5 10.5 0 15.4 5 5 5 8 16 2.4 14.2 19.5 62 0.1 0.4 2.6 6.1 2.4 5.8 2.6 6.5l1-5.1q1-5.3 2.2-8.7l17.6-45q1.7-4.1 3.2-11.8-1-1.8-2.1-3.4-1.1-1.7-2-2.8-0.8-1.2-1.9-2.2-1-1.1-1.7-1.6-0.6-0.6-1.5-1.1-0.7-0.6-1.1-0.7-0.3-0.2-0.7-0.4l-0.5-0.2-0.2-4.5q4.3-3.2 10.8-5.6 6.5-2.5 12.1-2.5 10.5 0 15.4 5 5 5 7.9 16 2.5 14.2 19.5 62 3.7 9.3 5.3 12.6 0-0.9 1-5.5 0.9-4.8 2.2-8.3l17.1-45q3.4-9.7 3.4-15.8 0-6-4.3-8.4v-4.5q3.5-3.3 9.3-5.6 5.8-2.5 11-2.5 9.2 0 9.2 9.3 0 6.5-6.2 22zm117.5 79.6q4.2 8.1 17.4 8.1v5.5q-4.6 3-12.9 5.3-8.3 2.3-15 2.3-8.1 0-14.2-6.1-6-6.1-6.8-12.2-4.4 8.7-14.1 13.5-9.5 4.8-18.9 4.8-18.6 0-28.3-9.8-9.8-9.9-9.8-23.3 0-11.8 7.3-20.7 7.5-8.9 19.3-13.5 11.9-4.5 26.1-4.5 7.7 0 15.3 2 0.5-10.5 0.5-15.5 0-7.5-0.7-12.8-0.6-5.5-2.5-10.4-1.8-4.9-5.6-7.5-3.7-2.5-9.1-2.5-8.1 0-12.6 5.7-4.4 5.7-2.7 14-6.6 5.3-14 5.3-6 0-10.3-3.7-4.2-3.6-4.2-9.6 0-11.6 13.4-19.1 13.3-7.4 30.4-7.4 23 0 36.2 10 13.2 10 13.2 29.1 0 3.6-0.3 14.9-0.2 11.2-0.2 22 0 29.7 3.1 36.1zm-34.6-39.6q-4.3 0.2-8.3 0.7-4 0.4-9.9 2-5.7 1.5-9.9 3.8-4.1 2.3-7.2 6.6-2.9 4.1-2.9 9.6 0 8.3 5.1 13.4 5.2 5.2 11.9 5.2 11.7 0 21.7-7.4-0.5-11.2-0.5-33.9zm88.3-89.5h20l-2.8 20.8h23.3q3.7 0 7.8-0.9 4.3-1 5.4-3.1 0.7 2.5 0.7 5.9 0 15-21.5 15-1.9 0-8.2-0.3-6.1-0.4-8.3-0.4v56.3q-0.1 3.5 0 7.4 0.2 3.9 0.3 7.8 0.2 3.8 1.2 7.4 1.1 3.4 2.7 6.1 1.6 2.5 4.5 4.1 3.1 1.6 7.1 1.6 7.6 0 15.7-2.4 8.2-2.6 10.3-6.7 3.2 7.8-1.4 15.3-4.5 7.5-14.1 12-9.5 4.4-20.5 4.4-11.5 0-19.1-2.7-7.4-2.7-11.3-8.3-3.9-5.6-5.4-12.6-1.5-7-1.5-17.4 0-9.3 1.3-27.6 1.2-18.3 1.2-26.7 0-14.4-2.2-17.3-5-6.3-12.5-9l1.3-7.4q1.1 0 2.9-0.5 1.8-0.5 5.6-2.2 3.9-1.8 8.6-6.6 4.7-4.8 8.9-12zm70.4 89q0-19.5 8.1-36 8-16.6 22.3-26.2 14.4-9.8 31.9-9.8 17.7 0 29.7 6.5 12.2 6.4 12.2 17.3 0 6.6-4.7 11.1-4.8 4.4-11 4.4-6.7 0-11.5-5.5-0.2-6.9-4.7-11.7-4.6-4.9-12.9-4.9-8.4 0-15 7-6.6 6.8-10 17.4-3.4 10.5-3.4 22.4 0 11.9 3.8 22.5 3.9 10.7 11.8 17.7 8 7 18.3 7 25.9 0 40.8-22.5 1.5 4.7 1.5 8.8 0 10-7.2 18.3-7.1 8.2-19.2 12.9-12.1 4.6-26.4 4.6-11.4 0-21.2-3.7-9.6-3.6-17.2-11-7.5-7.3-11.7-19.1-4.3-12-4.3-27.5zm164.7-49.5q4.1-4.4 7.9-7.7 3.9-3.5 9.3-7.1 5.5-3.7 11.7-5.6 6.2-2.1 12.8-2.1 15.3 0 25 9.6 9.8 9.6 9.8 23.4 0 3.5-0.1 24.2-0.1 20.7-0.1 23 0 28.8 2.7 49.8h-34l-0.4-2.7q-0.3-2.7-0.3-5.4 0-9.7 0.2-32.2 0.3-22.6 0.3-32.5 0-18.1-3.2-26-3.1-7.9-11.8-7.9-9.8 0-16.8 3.3-6.8 3.3-13 8.9v12.7q0 18.1 0 31.8 0 13.6 0.6 26.6 0.6 12.8 2.2 23.4h-35.1q0.9-40.9 0.9-95.1 0.1-54.3 0.4-54.4 0-12.4-4.1-19.7-3.9-7.4-8.6-8.8v-4.5l3.4-1.8q3.5-2 9.9-3.8 6.3-1.8 12.2-1.8 11.7 0 16.1 6.1 4.4 6.1 4.4 18.8 0 6.2-1.1 25.4-1 19.1-1.2 32.1z"/></svg>